<mxfile host="app.diagrams.net" agent="Mozilla/5.0 (Macintosh; Intel Mac OS X 10.15; rv:138.0) Gecko/20100101 Firefox/138.0" version="27.0.9">
  <diagram name="Page-1" id="knYSUzbomPsou_XcytAu">
    <mxGraphModel dx="1188" dy="668" grid="1" gridSize="10" guides="1" tooltips="1" connect="1" arrows="1" fold="1" page="1" pageScale="1" pageWidth="850" pageHeight="1100" math="0" shadow="0">
      <root>
        <mxCell id="0" />
        <mxCell id="1" parent="0" />
        <mxCell id="8ddSSuNwGGSK98Dh8M01-31" value="" style="rounded=0;whiteSpace=wrap;html=1;" vertex="1" parent="1">
          <mxGeometry x="230" y="700" width="260" height="430" as="geometry" />
        </mxCell>
        <mxCell id="iPHzjARXeaO7_SNhnkbq-3" value="github repository" style="whiteSpace=wrap;html=1;aspect=fixed;" parent="1" vertex="1">
          <mxGeometry x="530" y="360" width="80" height="80" as="geometry" />
        </mxCell>
        <mxCell id="iPHzjARXeaO7_SNhnkbq-8" value="&lt;div&gt;Redis DB&lt;/div&gt;" style="shape=datastore;whiteSpace=wrap;html=1;" parent="1" vertex="1">
          <mxGeometry x="310" y="230" width="60" height="60" as="geometry" />
        </mxCell>
        <mxCell id="iPHzjARXeaO7_SNhnkbq-12" style="edgeStyle=orthogonalEdgeStyle;rounded=0;orthogonalLoop=1;jettySize=auto;html=1;exitX=0.5;exitY=1;exitDx=0;exitDy=0;" parent="1" edge="1">
          <mxGeometry relative="1" as="geometry">
            <mxPoint x="240" y="800" as="sourcePoint" />
            <mxPoint x="240" y="800" as="targetPoint" />
          </mxGeometry>
        </mxCell>
        <mxCell id="iPHzjARXeaO7_SNhnkbq-16" value="" style="group" parent="1" vertex="1" connectable="0">
          <mxGeometry x="130" y="340" width="290" height="140" as="geometry" />
        </mxCell>
        <mxCell id="iPHzjARXeaO7_SNhnkbq-13" value="" style="rounded=0;whiteSpace=wrap;html=1;" parent="iPHzjARXeaO7_SNhnkbq-16" vertex="1">
          <mxGeometry width="290" height="140" as="geometry" />
        </mxCell>
        <mxCell id="iPHzjARXeaO7_SNhnkbq-1" value="&lt;div&gt;Site on&lt;/div&gt;&lt;div&gt;Vercel&lt;/div&gt;" style="whiteSpace=wrap;html=1;aspect=fixed;" parent="iPHzjARXeaO7_SNhnkbq-16" vertex="1">
          <mxGeometry x="40" y="20" width="80" height="80" as="geometry" />
        </mxCell>
        <mxCell id="iPHzjARXeaO7_SNhnkbq-2" value="webhook&lt;br&gt;&lt;div&gt;POST&lt;/div&gt;Handler" style="whiteSpace=wrap;html=1;aspect=fixed;" parent="iPHzjARXeaO7_SNhnkbq-16" vertex="1">
          <mxGeometry x="170" y="20" width="80" height="80" as="geometry" />
        </mxCell>
        <mxCell id="iPHzjARXeaO7_SNhnkbq-14" value="&lt;div&gt;Vercel&lt;/div&gt;" style="text;html=1;align=center;verticalAlign=middle;resizable=0;points=[];autosize=1;strokeColor=none;fillColor=none;" parent="iPHzjARXeaO7_SNhnkbq-16" vertex="1">
          <mxGeometry x="115" y="100" width="60" height="30" as="geometry" />
        </mxCell>
        <mxCell id="iPHzjARXeaO7_SNhnkbq-17" style="edgeStyle=orthogonalEdgeStyle;rounded=0;orthogonalLoop=1;jettySize=auto;html=1;entryX=0.5;entryY=1;entryDx=0;entryDy=0;" parent="1" source="iPHzjARXeaO7_SNhnkbq-2" target="iPHzjARXeaO7_SNhnkbq-8" edge="1">
          <mxGeometry relative="1" as="geometry" />
        </mxCell>
        <mxCell id="iPHzjARXeaO7_SNhnkbq-25" value="&lt;div&gt;commit data&lt;/div&gt;" style="edgeLabel;html=1;align=center;verticalAlign=middle;resizable=0;points=[];" parent="iPHzjARXeaO7_SNhnkbq-17" vertex="1" connectable="0">
          <mxGeometry x="-0.0944" relative="1" as="geometry">
            <mxPoint as="offset" />
          </mxGeometry>
        </mxCell>
        <mxCell id="iPHzjARXeaO7_SNhnkbq-18" style="edgeStyle=orthogonalEdgeStyle;rounded=0;orthogonalLoop=1;jettySize=auto;html=1;entryX=0;entryY=0.7;entryDx=0;entryDy=0;endArrow=none;startFill=1;startArrow=classic;" parent="1" source="iPHzjARXeaO7_SNhnkbq-1" target="iPHzjARXeaO7_SNhnkbq-8" edge="1">
          <mxGeometry relative="1" as="geometry">
            <Array as="points">
              <mxPoint x="210" y="272" />
            </Array>
          </mxGeometry>
        </mxCell>
        <mxCell id="iPHzjARXeaO7_SNhnkbq-20" value="&lt;div&gt;GET commit&lt;/div&gt;" style="edgeLabel;html=1;align=center;verticalAlign=middle;resizable=0;points=[];" parent="iPHzjARXeaO7_SNhnkbq-18" vertex="1" connectable="0">
          <mxGeometry x="-0.339" relative="1" as="geometry">
            <mxPoint as="offset" />
          </mxGeometry>
        </mxCell>
        <mxCell id="iPHzjARXeaO7_SNhnkbq-23" value="" style="edgeStyle=orthogonalEdgeStyle;rounded=0;orthogonalLoop=1;jettySize=auto;html=1;entryX=0.983;entryY=0.619;entryDx=0;entryDy=0;entryPerimeter=0;" parent="1" source="iPHzjARXeaO7_SNhnkbq-3" target="iPHzjARXeaO7_SNhnkbq-2" edge="1">
          <mxGeometry relative="1" as="geometry" />
        </mxCell>
        <mxCell id="iPHzjARXeaO7_SNhnkbq-24" value="webhook POST on push" style="edgeLabel;html=1;align=center;verticalAlign=middle;resizable=0;points=[];" parent="iPHzjARXeaO7_SNhnkbq-23" vertex="1" connectable="0">
          <mxGeometry x="-0.0224" relative="1" as="geometry">
            <mxPoint as="offset" />
          </mxGeometry>
        </mxCell>
        <mxCell id="iPHzjARXeaO7_SNhnkbq-27" style="edgeStyle=orthogonalEdgeStyle;rounded=0;orthogonalLoop=1;jettySize=auto;html=1;entryX=1;entryY=0.5;entryDx=0;entryDy=0;" parent="1" source="iPHzjARXeaO7_SNhnkbq-26" target="iPHzjARXeaO7_SNhnkbq-3" edge="1">
          <mxGeometry relative="1" as="geometry">
            <Array as="points">
              <mxPoint x="702" y="400" />
            </Array>
          </mxGeometry>
        </mxCell>
        <mxCell id="iPHzjARXeaO7_SNhnkbq-28" value="&lt;div&gt;push&lt;/div&gt;" style="edgeLabel;html=1;align=center;verticalAlign=middle;resizable=0;points=[];" parent="iPHzjARXeaO7_SNhnkbq-27" vertex="1" connectable="0">
          <mxGeometry x="-0.1592" y="-1" relative="1" as="geometry">
            <mxPoint as="offset" />
          </mxGeometry>
        </mxCell>
        <mxCell id="iPHzjARXeaO7_SNhnkbq-26" value="&lt;div&gt;repository owner&lt;/div&gt;" style="sketch=0;verticalLabelPosition=bottom;sketch=0;aspect=fixed;html=1;verticalAlign=top;strokeColor=none;fillColor=#000000;align=center;outlineConnect=0;pointerEvents=1;shape=mxgraph.citrix2.desktop;" parent="1" vertex="1">
          <mxGeometry x="650" y="470" width="103.47" height="80" as="geometry" />
        </mxCell>
        <mxCell id="iPHzjARXeaO7_SNhnkbq-29" style="edgeStyle=orthogonalEdgeStyle;rounded=0;orthogonalLoop=1;jettySize=auto;html=1;entryX=0.5;entryY=1;entryDx=0;entryDy=0;endArrow=none;startFill=1;startArrow=classic;" parent="1" source="iPHzjARXeaO7_SNhnkbq-1" target="iPHzjARXeaO7_SNhnkbq-3" edge="1">
          <mxGeometry relative="1" as="geometry">
            <Array as="points">
              <mxPoint x="210" y="530" />
              <mxPoint x="570" y="530" />
            </Array>
          </mxGeometry>
        </mxCell>
        <mxCell id="iPHzjARXeaO7_SNhnkbq-30" value="file data via OCTOKIT" style="edgeLabel;html=1;align=center;verticalAlign=middle;resizable=0;points=[];" parent="iPHzjARXeaO7_SNhnkbq-29" vertex="1" connectable="0">
          <mxGeometry x="-0.0503" y="-4" relative="1" as="geometry">
            <mxPoint as="offset" />
          </mxGeometry>
        </mxCell>
        <mxCell id="8ddSSuNwGGSK98Dh8M01-3" value="" style="group;imageAspect=0;" vertex="1" connectable="0" parent="1">
          <mxGeometry x="280" y="730" width="300" height="370" as="geometry" />
        </mxCell>
        <mxCell id="8ddSSuNwGGSK98Dh8M01-24" value="" style="rounded=0;whiteSpace=wrap;html=1;" vertex="1" parent="8ddSSuNwGGSK98Dh8M01-3">
          <mxGeometry width="170" height="370" as="geometry" />
        </mxCell>
        <mxCell id="8ddSSuNwGGSK98Dh8M01-16" style="edgeStyle=orthogonalEdgeStyle;rounded=0;orthogonalLoop=1;jettySize=auto;html=1;entryX=0.5;entryY=0;entryDx=0;entryDy=0;" edge="1" parent="8ddSSuNwGGSK98Dh8M01-3" source="8ddSSuNwGGSK98Dh8M01-8" target="8ddSSuNwGGSK98Dh8M01-13">
          <mxGeometry relative="1" as="geometry" />
        </mxCell>
        <mxCell id="8ddSSuNwGGSK98Dh8M01-8" value="all current files" style="rounded=0;whiteSpace=wrap;html=1;" vertex="1" parent="8ddSSuNwGGSK98Dh8M01-3">
          <mxGeometry x="20" y="62.5" width="120" height="25" as="geometry" />
        </mxCell>
        <mxCell id="8ddSSuNwGGSK98Dh8M01-15" style="edgeStyle=orthogonalEdgeStyle;rounded=0;orthogonalLoop=1;jettySize=auto;html=1;entryX=0.5;entryY=0;entryDx=0;entryDy=0;" edge="1" parent="8ddSSuNwGGSK98Dh8M01-3" source="8ddSSuNwGGSK98Dh8M01-9" target="8ddSSuNwGGSK98Dh8M01-8">
          <mxGeometry relative="1" as="geometry" />
        </mxCell>
        <mxCell id="8ddSSuNwGGSK98Dh8M01-9" value="get pending commits" style="rounded=0;whiteSpace=wrap;html=1;" vertex="1" parent="8ddSSuNwGGSK98Dh8M01-3">
          <mxGeometry x="20" y="10" width="120" height="30" as="geometry" />
        </mxCell>
        <mxCell id="8ddSSuNwGGSK98Dh8M01-4" style="edgeStyle=orthogonalEdgeStyle;rounded=0;orthogonalLoop=1;jettySize=auto;html=1;endArrow=none;startFill=1;startArrow=classic;exitX=0.5;exitY=0;exitDx=0;exitDy=0;" edge="1" parent="8ddSSuNwGGSK98Dh8M01-3" source="8ddSSuNwGGSK98Dh8M01-9">
          <mxGeometry relative="1" as="geometry">
            <mxPoint x="80" y="-60" as="targetPoint" />
          </mxGeometry>
        </mxCell>
        <mxCell id="8ddSSuNwGGSK98Dh8M01-19" style="edgeStyle=orthogonalEdgeStyle;rounded=0;orthogonalLoop=1;jettySize=auto;html=1;entryX=0.5;entryY=0;entryDx=0;entryDy=0;" edge="1" parent="8ddSSuNwGGSK98Dh8M01-3" source="8ddSSuNwGGSK98Dh8M01-13" target="8ddSSuNwGGSK98Dh8M01-17">
          <mxGeometry relative="1" as="geometry" />
        </mxCell>
        <mxCell id="8ddSSuNwGGSK98Dh8M01-13" value="file diffs to deploy/redeploy" style="rounded=0;whiteSpace=wrap;html=1;" vertex="1" parent="8ddSSuNwGGSK98Dh8M01-3">
          <mxGeometry x="20" y="110" width="120" height="40" as="geometry" />
        </mxCell>
        <mxCell id="8ddSSuNwGGSK98Dh8M01-26" style="edgeStyle=orthogonalEdgeStyle;rounded=0;orthogonalLoop=1;jettySize=auto;html=1;entryX=0.5;entryY=0;entryDx=0;entryDy=0;" edge="1" parent="8ddSSuNwGGSK98Dh8M01-3" source="8ddSSuNwGGSK98Dh8M01-17" target="8ddSSuNwGGSK98Dh8M01-25">
          <mxGeometry relative="1" as="geometry" />
        </mxCell>
        <mxCell id="8ddSSuNwGGSK98Dh8M01-17" value="generate html + routes" style="rounded=0;whiteSpace=wrap;html=1;" vertex="1" parent="8ddSSuNwGGSK98Dh8M01-3">
          <mxGeometry x="20" y="170" width="120" height="30" as="geometry" />
        </mxCell>
        <mxCell id="8ddSSuNwGGSK98Dh8M01-28" style="edgeStyle=orthogonalEdgeStyle;rounded=0;orthogonalLoop=1;jettySize=auto;html=1;entryX=0.5;entryY=0;entryDx=0;entryDy=0;" edge="1" parent="8ddSSuNwGGSK98Dh8M01-3" source="8ddSSuNwGGSK98Dh8M01-20" target="8ddSSuNwGGSK98Dh8M01-21">
          <mxGeometry relative="1" as="geometry" />
        </mxCell>
        <mxCell id="8ddSSuNwGGSK98Dh8M01-20" value="redeploy via vercel-hook" style="rounded=0;whiteSpace=wrap;html=1;" vertex="1" parent="8ddSSuNwGGSK98Dh8M01-3">
          <mxGeometry x="20" y="270" width="120" height="30" as="geometry" />
        </mxCell>
        <mxCell id="8ddSSuNwGGSK98Dh8M01-21" value="reset redis data" style="rounded=0;whiteSpace=wrap;html=1;" vertex="1" parent="8ddSSuNwGGSK98Dh8M01-3">
          <mxGeometry x="20" y="330" width="120" height="30" as="geometry" />
        </mxCell>
        <mxCell id="8ddSSuNwGGSK98Dh8M01-27" style="edgeStyle=orthogonalEdgeStyle;rounded=0;orthogonalLoop=1;jettySize=auto;html=1;entryX=0.5;entryY=0;entryDx=0;entryDy=0;" edge="1" parent="8ddSSuNwGGSK98Dh8M01-3" source="8ddSSuNwGGSK98Dh8M01-25" target="8ddSSuNwGGSK98Dh8M01-20">
          <mxGeometry relative="1" as="geometry" />
        </mxCell>
        <mxCell id="8ddSSuNwGGSK98Dh8M01-25" value="combine  sanity blogs and sort" style="rounded=0;whiteSpace=wrap;html=1;" vertex="1" parent="8ddSSuNwGGSK98Dh8M01-3">
          <mxGeometry x="20" y="220" width="120" height="30" as="geometry" />
        </mxCell>
        <mxCell id="8ddSSuNwGGSK98Dh8M01-18" style="edgeStyle=orthogonalEdgeStyle;rounded=0;orthogonalLoop=1;jettySize=auto;html=1;entryX=0;entryY=0.5;entryDx=0;entryDy=0;" edge="1" parent="1" source="8ddSSuNwGGSK98Dh8M01-11" target="8ddSSuNwGGSK98Dh8M01-17">
          <mxGeometry relative="1" as="geometry" />
        </mxCell>
        <mxCell id="8ddSSuNwGGSK98Dh8M01-11" value="github&lt;br&gt;repository" style="text;html=1;align=center;verticalAlign=middle;resizable=0;points=[];autosize=1;strokeColor=none;fillColor=none;" vertex="1" parent="1">
          <mxGeometry x="130" y="785" width="80" height="40" as="geometry" />
        </mxCell>
        <mxCell id="8ddSSuNwGGSK98Dh8M01-12" style="edgeStyle=orthogonalEdgeStyle;rounded=0;orthogonalLoop=1;jettySize=auto;html=1;entryX=0;entryY=0.709;entryDx=0;entryDy=0;entryPerimeter=0;" edge="1" parent="1" source="8ddSSuNwGGSK98Dh8M01-11">
          <mxGeometry relative="1" as="geometry">
            <mxPoint x="300" y="804.7249999999999" as="targetPoint" />
          </mxGeometry>
        </mxCell>
        <mxCell id="8ddSSuNwGGSK98Dh8M01-2" value="&lt;div&gt;Vercel-site&lt;/div&gt;" style="text;html=1;align=center;verticalAlign=middle;resizable=0;points=[];autosize=1;strokeColor=none;fillColor=none;" vertex="1" parent="1">
          <mxGeometry x="320" y="1130" width="80" height="30" as="geometry" />
        </mxCell>
        <mxCell id="8ddSSuNwGGSK98Dh8M01-23" value="&lt;div&gt;Redis DB&lt;/div&gt;" style="shape=datastore;whiteSpace=wrap;html=1;" vertex="1" parent="1">
          <mxGeometry x="330" y="610" width="60" height="60" as="geometry" />
        </mxCell>
        <mxCell id="8ddSSuNwGGSK98Dh8M01-22" style="edgeStyle=orthogonalEdgeStyle;rounded=0;orthogonalLoop=1;jettySize=auto;html=1;entryX=1;entryY=0.5;entryDx=0;entryDy=0;" edge="1" parent="1" source="8ddSSuNwGGSK98Dh8M01-21" target="8ddSSuNwGGSK98Dh8M01-23">
          <mxGeometry relative="1" as="geometry">
            <mxPoint x="440" y="660" as="targetPoint" />
            <Array as="points">
              <mxPoint x="560" y="1075" />
              <mxPoint x="560" y="640" />
            </Array>
          </mxGeometry>
        </mxCell>
        <mxCell id="8ddSSuNwGGSK98Dh8M01-30" style="edgeStyle=orthogonalEdgeStyle;rounded=0;orthogonalLoop=1;jettySize=auto;html=1;entryX=0;entryY=0.5;entryDx=0;entryDy=0;" edge="1" parent="1" source="8ddSSuNwGGSK98Dh8M01-29" target="8ddSSuNwGGSK98Dh8M01-25">
          <mxGeometry relative="1" as="geometry" />
        </mxCell>
        <mxCell id="8ddSSuNwGGSK98Dh8M01-29" value="sanity-cms" style="text;html=1;align=center;verticalAlign=middle;resizable=0;points=[];autosize=1;strokeColor=none;fillColor=none;" vertex="1" parent="1">
          <mxGeometry x="130" y="950" width="80" height="30" as="geometry" />
        </mxCell>
        <mxCell id="8ddSSuNwGGSK98Dh8M01-33" value="webhook POST handler" style="text;html=1;align=center;verticalAlign=middle;resizable=0;points=[];autosize=1;strokeColor=none;fillColor=none;" vertex="1" parent="1">
          <mxGeometry x="610" y="650" width="150" height="30" as="geometry" />
        </mxCell>
        <mxCell id="8ddSSuNwGGSK98Dh8M01-34" style="edgeStyle=orthogonalEdgeStyle;rounded=0;orthogonalLoop=1;jettySize=auto;html=1;entryX=0.983;entryY=0.917;entryDx=0;entryDy=0;entryPerimeter=0;" edge="1" parent="1" source="8ddSSuNwGGSK98Dh8M01-33" target="8ddSSuNwGGSK98Dh8M01-23">
          <mxGeometry relative="1" as="geometry" />
        </mxCell>
        <mxCell id="8ddSSuNwGGSK98Dh8M01-35" value="latest commits" style="edgeLabel;html=1;align=center;verticalAlign=middle;resizable=0;points=[];" vertex="1" connectable="0" parent="8ddSSuNwGGSK98Dh8M01-34">
          <mxGeometry x="0.0768" y="-2" relative="1" as="geometry">
            <mxPoint as="offset" />
          </mxGeometry>
        </mxCell>
      </root>
    </mxGraphModel>
  </diagram>
</mxfile>
